<?xml version="1.0" encoding="UTF-8"?>
<svg id="Layer_1" data-name="Layer 1" xmlns="http://www.w3.org/2000/svg" viewBox="0 0 779.3 687.16">
  <defs>
    <style>
      .cls-1 {
        fill: #fff;
      }
    </style>
  </defs>
  <path class="cls-1" d="M145.1,622.09l-14.72-.06-32.12-43.91-.27,43.92-16.12.14.06-70.91h15.13s23.29,31.48,23.29,31.48c2.93,3.97,4.98,7.1,8.64,11.55l.32-43,15.87.04-.08,70.76Z"/>
  <path class="cls-1" d="M375.66,586.87c0,20.66-16.75,37.41-37.41,37.41s-37.41-16.75-37.41-37.41,16.75-37.41,37.41-37.41,37.41,16.75,37.41,37.41ZM352.41,603.75c8.68-8.79,8.88-23.14,1.52-32.33-7.92-9.89-23.39-9.7-31.3.06s-7.02,23.87,1.68,32.48c7.35,7.27,20.41,7.56,28.09-.22Z"/>
  <path class="cls-1" d="M434.05,601.58l14.36,20.42-18.78.09-15.59-23.79-10.95.1-.11,23.68-16.09-.02.05-70.84,31.81.03c4.87,0,9.88,1.29,14.37,2.87,6.53,3.41,10.75,8.84,11.75,16.23,1.64,12.12-3.87,21.53-15,26.37,1.24,1.38,3.04,3.22,4.19,4.86ZM419.28,584.41c5.8-.05,9.36-4.95,9.34-9.51s-3.59-9.51-8.92-9.55l-16.7-.11.08,19.3,16.2-.13Z"/>
  <path class="cls-1" d="M700.74,594.94l-15.24-.13-.28-13.49,30.06-.05.05,34.12c-12.35,8.52-27.4,10.8-41.75,6.18-18.02-5.8-25.75-23.25-23.08-41.27,1.55-10.46,7.26-20,16.59-25.22,14.19-7.95,34.36-7.08,47.01,4.35l-7.45,10.85c-7.79-5.38-16.25-7.57-25.01-5.13-16.5,4.61-18.3,24.53-12.24,34.66,6.23,10.41,21.06,12.34,31.32,6.9l.03-11.78Z"/>
  <polygon class="cls-1" points="289.55 622.06 273.61 622.21 273.48 593.08 243.96 593.11 243.77 622.18 227.9 622.07 227.84 551.34 243.75 551.26 243.91 578.96 273.47 579.12 273.59 551.19 289.5 551.25 289.55 622.06"/>
  <path class="cls-1" d="M53.72,611.15c-.15-.41-1.96-2.11-2.62-2.11l-28.93.22-5.02,13.03-17.14-.4,28.01-70.54,19.12-.1,27.66,70.73-16.97.31-4.11-11.14ZM47.77,595.13l-10.34-26.95-10.42,27.28,20.76-.33Z"/>
  <path class="cls-1" d="M630.86,622.36l-5.37-13.47-30.75.2-4.85,13.1-17.23-.05,13.39-33.54,14.72-37.42,19.37.2,12.01,30.56,15.75,40.09-17.05.32ZM620.6,595.12l-7.21-19.23c-.97-2.59-2-4.92-3.2-7.6l-10.53,27.12,20.94-.29Z"/>
  <polygon class="cls-1" points="776.5 593.2 744.57 593.27 744.6 608.01 779.27 608.08 779.3 622.18 754.72 622.18 728.67 622.19 728.67 551.21 778.78 551.27 778.83 565.4 744.67 565.59 744.71 579.43 776.36 579.45 776.5 593.2"/>
  <path class="cls-1" d="M503.84,618.68c-14.43,9.04-38.18,6.21-50.56-5.89l7.54-10.53c8.35,7.95,34.06,11.79,35.65.39,1.85-13.31-35.76-3.46-39.72-27.08-1.63-9.76,3.12-18.88,12.35-22.68,12.41-5.1,32.75-3.73,41.93,6.56l-7,10.58c-8.32-7.07-31.06-9.54-31.47,1.05-.08,2.07,2.35,5.35,4.63,5.89l13.15,3.12c11.56,2.74,21.82,7,22.37,20.45.3,7.33-2.59,14.19-8.89,18.14Z"/>
  <path class="cls-1" d="M174.04,593.52c2.53,10.17,10.74,16.03,20.7,15.92,6.31-.07,12.19-1.61,17.15-5.93,4.27,3.55,5.39,8.92,3.94,14.34-13.14,7.8-29.66,8.44-43.01.42-17.87-10.73-20.79-38.47-8.87-54.62,12.09-16.37,39.55-18.3,53.86-5.01l-5.14,9.13-.84,1.49c-.27.47-2.03-.22-2.5-.53-9.05-5.93-21.09-6.4-29.36,1.02-6.54,5.86-8.06,15.19-5.92,23.78Z"/>
  <polygon class="cls-1" points="555.53 622.17 539.55 622 539.45 565.74 518.27 565.43 518.11 551.23 576.78 551.25 576.86 565.46 555.56 565.62 555.53 622.17"/>
  <path class="cls-1" d="M581.95,685.46c-.83.75-4.88,1.1-5.92-.21l-17.28-21.58-.72,22.09c-.95.1-4.07.18-5.4.13l.1-32.58,4.89-.38,18.17,22.32.53-21.93,5.6-.16.03,32.3Z"/>
  <path class="cls-1" d="M329.17,686.27l-8.08-10.87c-1.49-1.14-6.13-.89-7.74-.25l-.5,10.92-5.47-.21.04-32.96,17.13.31c6.28.11,10.72,5.36,10.21,11.28-.4,4.56-2.43,7.66-7.32,9.67l8.76,11.75-7.02.38ZM328.84,663.22c-.43-2.55-3.65-5.12-5.38-5.14l-10.31-.14-.03,11.74,10.83-.04c1.96,0,5.32-3.82,4.88-6.43Z"/>
  <path class="cls-1" d="M527.28,669.61c0,9.7-7.86,17.56-17.56,17.56s-17.56-7.86-17.56-17.56,7.86-17.56,17.56-17.56,17.56,7.86,17.56,17.56ZM521.59,669.57c0-6.58-5.34-11.92-11.92-11.92s-11.92,5.34-11.92,11.92,5.34,11.92,11.92,11.92,11.92-5.34,11.92-11.92Z"/>
  <path class="cls-1" d="M279.87,672.02l-15.69.04c-1.32,1.51-1.38,6.12-.52,8.83l17.55.31.28,5.05-24.11-.16.09-33.19,23.49.03-.09,4.89-17.56.3-.04,8.67,16.58.16v5.05Z"/>
  <path class="cls-1" d="M177.74,679.25c-3.24,5.17-8.55,7.14-13.97,7.52-10.01.69-17.71-6.22-18.22-16.21-.48-9.32,5.72-16.95,15.14-18.02,6.78-.77,13.62,1.67,17.25,7.63,3.43,5.63,3.49,13.19-.2,19.08ZM174.85,669.59c0-6.53-5.3-11.83-11.83-11.83s-11.83,5.3-11.83,11.83,5.3,11.83,11.83,11.83,11.83-5.3,11.83-11.83Z"/>
  <path class="cls-1" d="M627.53,685.65c-6.46,2.57-15.12.98-19.61-3.11-.79-.92,1.49-4.54,2.44-4.41,5.67,4.29,16.42,5.48,17.87-1.05.28-1.25-1.89-3.79-3.14-4.07l-9.22-2.01c-3.12-.68-6.47-2.71-7.39-5.74-1.86-6.11,2.22-11.53,8.13-12.56,5.98-1.04,11.64-.23,16.65,3.55l-2.47,4.45c-5.52-3.83-13.83-5.3-16.8.36-.54,1.02,1.11,4.04,2.24,4.3l6.49,1.51c2.6.6,5.28,1.17,7.62,2.37,2.63,1.36,3.88,5.74,3.57,8.45-.35,3.07-2.66,6.47-6.39,7.95Z"/>
  <path class="cls-1" d="M386.41,685.84c-1.81-.84-1.58-6.83-5.7-6.81l-14.17.08-3.52,6.21c-.72,1.26-4.43.96-6.13.33l14.81-32.88,6.17.58,14.29,32.3c-1.46.41-4.5.75-5.73.18ZM381.01,674.09l-6.41-14.54-6.45,14.5,12.86.04Z"/>
  <path class="cls-1" d="M221.34,675.8h-9.8s-.59,10.11-.59,10.11l-5.23-.1-.04-32.74,15.23-.15c2.93-.03,7.27,1.91,9.12,4.15,3.84,4.66,3.25,11.81-.97,15.78-1.47,1.38-5.8,2.95-7.72,2.95ZM221.98,670.52c1.93-.07,4.51-3.66,4.71-5.55s-1.68-6.17-3.76-6.4c-4.37-.49-7.11-.49-11.58-.48l-.02,12.82,10.65-.39Z"/>
  <path class="cls-1" d="M425.99,685.1c0,1.37-4.97,1.31-5.45.19l-.18-26.98-10.51-.31.29-5.09,26.4.04.29,4.85-10.7.52-.14,26.77Z"/>
  <rect class="cls-1" x="447.28" y="666.7" width="33.15" height="5.73" transform="translate(-205.91 1133.13) rotate(-89.97)"/>
  <g>
    <path class="cls-1" d="M454.66,501.39l2.05-4.03c.61-1.2,1.94-2.92,2.76-3.83l11.88-1.21c22.56-1.75,44.55-1.51,67.35-1.51,23.46,0,45.64.93,69.1,2.92,36.07,3.06,70.22,10.99,104,23.99.1.52.17,1.38.11,1.52l-64.33-9.53c-53.4-7.91-106.73-8.56-160.73-8.41l-32.21.09Z"/>
    <path class="cls-1" d="M488.9,483.01c-25.21-.02-56.25,3.26-80.9,4.85,3.16-2.04,6.23-3.63,9.61-4.31l20.85-4.19c34.16-6.86,83.25-9.02,118.26-7.56,28.81,1.2,56.24,3.86,84.34,9.38,15.02,2.95,29.49,5.69,43.73,11.12-34.14-3.36-66.43-6.78-100.04-7.98l-35.47-1.26-60.39-.05Z"/>
    <path class="cls-1" d="M254.19,503.67c-15.79,1.67-30.72,3.72-46.27,6.9l-53.06,10.82c-7.65,1.56-14.44,3.67-22.36,5.08,11.88-5.25,23.58-8.84,36.07-12.84,41.83-13.39,105.19-25.98,148.51-26.62l40.65-.6c6.79-.1,8.98.33,15.41,4.11l-31.47,4.02-16.2,1.59-71.28,7.55Z"/>
    <path class="cls-1" d="M459.47,493.53c-.83.91-2.15,2.63-2.76,3.83l-2.05,4.03-20.98.91-63.8,4-.31-2.78c.32-.02,1.93-.84,2.35-.9l22.56-3.14c21.97-3.06,43.41-4.73,64.98-5.96Z"/>
    <path class="cls-1" d="M369.57,503.52l.31,2.78-32.07,4.3c-3.53.47-6.34,1.43-10.27.39l8.75-1.64,25.09-4.92c2.34-.46,6.22-.81,8.21-.91Z"/>
  </g>
  <g>
    <path class="cls-1" d="M229.77,339.41c-.99.3-3.65,1-4.71,1.05l-3.77-4.56c-1.82-2.2-4.6-3.57-7.2-5.27,4.94,15.42,16.9,31.69,26.65,43.76.49.61,2.61,1.51,2.96,1.51-.15,3.25,13.65,14.34,15.05,15.66,13.71,13.01,30.38,22.61,48.59,29.21,4.95,1.79,9.6,3.34,14.32,4.14,8.18,3.12,17.06,4.29,26.3,5.51,5.84.77,11.88.09,17.8-.63l10.83-1.32c3.06-.37,6.13-.68,9.18-1.25l3.55.26-.04-45.97c0-3.21.83-7.21.44-9.93,8.91,2.11,6.47,5.14,18.82,8.26l9.45,2.39,5.98,8c4.26,5.7,10.36,7.9,16.31,11.27,3.92,2.22,6.37,8.53,8.84,12.38,4.74,7.39,4.37,2.05,9.01,9.29.51.8,2.55,1.78,3.49,1.48,27.86-8.86,51.96-25.05,72.42-45.76,6.64-6.72,15.64-17.65,20.2-25.64l9.63-16.85,6.4,13.66c.66,1.4,2.13,3.13,4.12,5.25,4.99-12.83,7.17-25.89,5.94-39.81l-2.39-26.91c-.1-1.13-1.48-3.23-2.04-3.84l-.6-3.3c-.8,1.48-1.43,2.48-1.65,3.13-1.11,3.32-3.69,9.75-5.54,12.9l-3.46,5.88c-1.23,2.09-2.13,4.14-2.99,5.98-5.85,5.43-9.6,12.03-16.87,17.55l-4.45-1.93c-.65.28-2.8,1.18-3.65,1.78l3.12-3.17c4.48-4.54,8.93-9.05,12.93-14.05,10.5-13.15,17.08-27.65,22.47-44.21l5.8,14.67c13.11,33.14,9.25,74.86-8.76,105.79-1.42-9.22-3.11-17.23-6.15-25.47-24.33,51.8-71.5,85.2-125.46,98.89-21.62,6.2-38.79,13.88-51.84,33.51-13.9-22.13-33.01-27.93-56.47-34.88-41.55-11.96-75.11-32.71-101.98-66.73-7.49-10.31-13.3-20.22-18.37-31.71l-7.05,26.28c-20.08-38.67-20.15-81.34-1.69-120.12,8.93,30.33,25.3,53.82,51.41,70.21,0,.3.14,1.25.15,1.39l-22.24.69-2.06.06c-.51.02-.61,1-.76,1.52ZM226.83,325.67c2.84,1.35,5.68,2.67,9.22,3.92-8.51-8.47-15.85-16.29-22.47-26.07-1.08-1.59-2.3-3.57-2.87-5.02l-3.35-8.53-3.55-9.54c-.52,14.6,3.07,35.23,8.83,48.1l7.29-.56,5.64-.45c.48-.04,1.36-1.78,1.26-1.84ZM237.72,330.06c0-.28-.22-.5-.5-.5s-.5.22-.5.5.22.5.5.5.5-.22.5-.5Z"/>
    <path class="cls-1" d="M389.72,371.56c-.3-2.06-1.2-4.83-1-7,.73-8,.65-15.97.55-24.01-.05-3.57.35-7.39.67-11.59l9.34-1.83,10.67-2.09,8.73-1.45c1.61,15.76,4.59,31.36,7.59,47.38.93,4.96,4.01,10.11,7.46,13.48,16.12,15.73,48.97,4.05,66.38-4.59,19.98-9.92,35.18-23.83,48.58-42.4-9.17.05-17.43.34-26.18-.7l14.2-10.04c.84-.6,2.99-1.5,3.65-1.78l4.45,1.93c2.08,2.36,13.55-4.97,15.86-7.13,2.11-1.97,7.93-11.95,8.13-7.48l.33,7.44,2.58-9.45c.39-1.45.42-4.35.47-5.69,1.42-5.67,2.44-13.75,2.75-19.81l.98-.03c.56.61,1.94,2.71,2.04,3.84l2.39,26.91c1.23,13.92-.94,26.97-5.94,39.81-1.99-2.12-3.46-3.84-4.12-5.25l-6.4-13.66-9.63,16.85c-4.56,7.99-13.56,18.93-20.2,25.64-20.47,20.71-44.56,36.9-72.42,45.76-.94.3-2.98-.69-3.49-1.48-4.64-7.24-4.28-1.91-9.01-9.29-2.47-3.85-4.92-10.16-8.84-12.38-5.96-3.37-12.05-5.57-16.31-11.27l-5.98-8-9.45-2.39c-12.35-3.12-9.91-6.15-18.82-8.26Z"/>
    <path class="cls-1" d="M229.77,339.41c.73.44,1.99,1.45,2.7,2.34,8.92,11.03,18.39,20.9,29.97,29.14,17.13,12.19,36.49,19.68,57.4,21.38,16.75,1.37,29.5-8.37,32.12-24.63l4.44-27.58c.11-.68.74-2.08.98-2.6,2.94,2.57,6.2,2.94,10.5,3.23,10.56.72,8.69,3.14,17.77.82.18.38.91,2.49.92,3.32l.14,19.74.86,7.03c1.47,12-.79,23.81-1.18,35.91l-.63,19.7c-3.04.58-6.12.88-9.18,1.25-1.95-5.31-13.75-2.59-21.22-8.5-6.01-4.76-10.68-12.47-13.2-19.38-13.33,5.96-33.11,1.19-45.41-2.99-3.37-1.15-7.42-3.26-11.19-4.98-12.23-5.58-23.11-12.79-33.98-19.87-3.95-2.58-5.52-8.38-12.25-9.03.87,2.9,2.31,5.66,4.01,8.33l1.4,2.2c.28.44-.75,1.33-1.05,1.66-.35,0-2.47-.89-2.96-1.51-9.75-12.07-21.72-28.34-26.65-43.76,2.6,1.7,5.38,3.07,7.2,5.27l3.77,4.56c1.06-.05,3.72-.75,4.71-1.05Z"/>
    <path class="cls-1" d="M376.59,428.45l-10.83,1.32c-5.92.72-11.96,1.41-17.8.63-9.24-1.22-18.12-2.39-26.3-5.51-.94-1.27-2.68-2.9-4.29-3.86l-13.35-7.95c-5.23-3.12-9.8-11.2-7.26-15.5,12.3,4.18,32.08,8.95,45.41,2.99,2.52,6.91,7.19,14.62,13.2,19.38,7.47,5.91,19.27,3.19,21.22,8.5Z"/>
    <path class="cls-1" d="M210.71,298.5l-1.43,1.11c1.26,11.08,11.39,19.05,17.55,26.06.1.06-.79,1.8-1.26,1.84l-5.64.45-7.29.56c-5.77-12.87-9.35-33.5-8.83-48.1l3.55,9.54,3.35,8.53Z"/>
    <path class="cls-1" d="M388.72,364.56c-.2,2.17.7,4.94,1,7,.39,2.72-.44,6.72-.44,9.93l.04,45.97-3.55-.26.63-19.7c.39-12.1,2.65-23.91,1.18-35.91l-.86-7.03h2Z"/>
    <path class="cls-1" d="M572.18,304.56c-.05,1.34-.08,4.24-.47,5.69l-2.58,9.45-.33-7.44c-.2-4.47-6.02,5.5-8.13,7.48-2.31,2.15-13.78,9.49-15.86,7.13,7.26-5.52,11.02-12.12,16.87-17.55,7.56,1.13,7.15-3.88,10.51-4.76Z"/>
    <path class="cls-1" d="M251.59,372.73c-1.82,1.89-1.26,5.06.59,7.39l6.11,7.68c.5.63.52,3.48.46,3.74-1.39-1.32-15.19-12.41-15.05-15.66.29-.32,1.33-1.22,1.05-1.66l-1.4-2.2c-1.7-2.67-3.13-5.43-4.01-8.33,6.73.65,8.3,6.45,12.25,9.03Z"/>
    <path class="cls-1" d="M226.83,325.67c-6.16-7.01-16.29-14.98-17.55-26.06l1.43-1.11c.57,1.45,1.79,3.43,2.87,5.02,6.62,9.78,13.96,17.6,22.47,26.07-3.54-1.25-6.37-2.57-9.22-3.92Z"/>
    <path class="cls-1" d="M575.91,284.72l-.98.03-1.27-.2c.22-.65.85-1.65,1.65-3.13l.6,3.3Z"/>
    <circle class="cls-1" cx="237.22" cy="330.06" r=".5"/>
    <g>
      <path class="cls-1" d="M272.99,349.45c1.21.03,3.78.35,4.78,1l4.67,3.03,12.52-32.63,2.74-8.46,3.86-9.79,34.55-90.33c.64-1.67,1.76-3.45,2.44-4.56,1.23.95,3.01,1.6,5.06,1.95,14.42,2.43,7.89,4.89,17.79,2.96l-7.27,55.33-8.4,63.84-5.49,34.22c-.41,2.59-1.69,6.8-3.3,8.68-14.27,16.75-53.89-2.91-67.95-14.19l3.99-11.06Z"/>
      <path class="cls-1" d="M469.78,378.72c-4.84,2.9-14.96,3.4-21.39,1.38-6.22-1.95-10-6.8-11.15-13.2-4.13-22.94-6.33-45.74-9.46-68.41,1.38-.12,3.97-2.05,4.23-3.54l2.01-11.31,4.76-24.95c-1.57-4.3-.42-8.61,1.78-12.45.27-6.24,2.71-11.76,7.3-15.44.21.24,1.38,1.74,1.62,2.37l18.73,48.91,9.86,25.44c.97,2.51.96,5.51.19,8.18l-4.14,14.25c-1.06,3.66-.29,9.39-.62,13.47l-.97,12.16c-.26,3.26-.58,6.64-1,9.83l-1.05,7.92-.71,5.4Z"/>
      <path class="cls-1" d="M418.68,323.58l-8.73,1.45-10.67,2.09-9.34,1.83c-.32,4.2-.72,8.03-.67,11.59-1.18.1-2.57.47-3.6.96-9.08,2.32-7.21-.1-17.77-.82-4.3-.29-7.56-.66-10.5-3.23l.15-2.9c1.12.14,1.25-2.05.1-2l1.62-15.56,3.83-32.12,4.68.42c17.3,1.54,11.65,2.44,21.17,5.1.53.15,1.24-1.24,1.91-1.93,4.46-4.58,8.39-3.76,8.51-6.14l.42-8.43,10.09-1.26c.7-.09,2.29.11,2.94.34.44.15.88,1.72.94,2.28l4.93,48.31Z"/>
      <path class="cls-1" d="M433.92,194.56c.41.59,1.4,2.1,1.7,2.88l11.37,29.06c.44,1.12.77,3.25.87,4.29-4.59,3.68-7.03,9.2-7.3,15.44-2.2,3.84-3.35,8.15-1.78,12.45l-4.76,24.95-2.01,11.31c-.26,1.49-2.86,3.42-4.23,3.54l-3.15-22.84-6.27-45.98-4.89-35.09h20.46Z"/>
      <path class="cls-1" d="M297.69,312.4l-2.74,8.46-12.52,32.63-4.67-3.03c-1-.65-3.56-.97-4.78-1l14.66-40.08c.4-1.09,1.51-2.83,2.03-3.58,6.17,2.17,4.63,1.06,8.02,6.61Z"/>
      <path class="cls-1" d="M357.54,334.56l.1-2c1.15-.05,1.02,2.14-.1,2Z"/>
      <g>
        <path class="cls-1" d="M469.78,378.72l.71-5.4,1.05-7.92c.42-3.19.74-6.58,1-9.83l.97-12.16c.32-4.07-.45-9.8.62-13.47l4.14-14.25c.77-2.67.79-5.67-.19-8.18l-9.86-25.44-18.73-48.91c-.24-.63-1.41-2.13-1.62-2.37-.11-1.04-.43-3.16-.87-4.29l-11.37-29.06c-.31-.78-1.29-2.29-1.7-2.88-.25-1.26-.69-3.36-1.22-4.77l-7.04-18.68-16.61-2.02-1.45-12.49c-20.94-3.85-16.41-4.35-37.5-.12l-1.14,12.46-17.09,2.52-10.95,28.55c-1.04,2.71-1.88,5.3-2.38,7.72-.69,1.11-1.81,2.9-2.44,4.56l-34.55,90.33-3.86,9.79c-3.38-5.55-1.85-4.44-8.02-6.61.78-4.01,2.53-8.08,4.16-12.44l26.89-71.87,18.44-48.48c-2.83-1.19-7.15-3.32-7.23-5.29l-.46-11.08-32.86-4.46c-4.68-.63-12.1-2.74-12.13-8.77-.03-7.35,1.37-15.07,1.74-22.38.25-4.97,2.36-8.5,7.54-9.36l43.66-7.31,29.11-4.54.16-9.86c-7.29-4.62-13.4-9.36-18.2-16.16-14.19-20.09-10.08-47.38,7.8-62.45s45.08-15.17,62.54,1.09c14.14,13.18,18.67,33.51,11.9,51.35-4.53,11.96-13.58,20.27-24.46,26.31l.86,9.95,15.27,2.17,57.45,9.26c2.32.37,6.92,3.11,7.14,5.34l2.33,23.89c.48,4.93-2.49,9.62-7.74,10.39l-8.91,1.32-28.46,4.22-.22,10.61c-.07,3.4-8.26,4.16-6.64,8.37l20.21,52.72,15.89,42.41,20.98,55.83,11.71,31.65c.47,1.28-.48,3.25-1.57,3.99-9.85,6.61-25.74,16.55-36.79,16.51ZM368.55,11.68c-3.98,2.3-7.52,4.88-11,8.81-4.06,4.61-10.22,14.34-8.99,20.12-4.63,8.9,1.29,23.11,7.78,31.6.77.97,2.83,1.97,1.93.26-1.36-2.7-3.26-6.78-3.89-8.75-.27-.83,2.4-2.85,3.01-2.38l2.56,2,1.52,1.19c2.81,2.21-2.27-8.42-3.59-14.59-.09-.44,1.47-1.14,1.84-1.39,1.66-1.11,1.64-5.04-.05-8.05-2.68-4.76,2.91-12.66,7.29-16.57,10.42-9.28,24.5-11.05,36.78-4.53,11.72,6.22,11.22,12.36,15.99,22.04l-.65,7.32c-.74,8.41-4.27,15.42-10.37,21.77,8.37-4.46,12.66-13.37,12.77-21.99l.09-6.82c1.61,1.24,5.59,2.42,8.4,1.93-.83-16.08-9.91-28.35-24.22-33.83-3.8-1.46-6.78-2.71-10.96-3.3-12.72-1.81-15.39-1.13-26.25,5.14ZM396.69,63.7l2.31-.24c.55-.06.49-1.51.72-1.9.54-.23,1.48-.72,2-1,.27-.03,1.27.04,1.4-.27l.78-1.75c9.06-8.27,6.67-23.04-3.3-29.7-3.65-2.43-8.88-3.99-13.18-3.59-11.37,1.05-19.94,10.88-18.58,22.37,1.15,9.75,9.47,17.19,18.83,18.57,3.47.51,7.19-.39,9.01-2.48ZM403.28,99.42c.14-3.87.35-9.73-.45-13.21-.79-1.95-5.77-3.63-7.97-3.67l-17.61-.38c-1.32-.03-3.2,2.26-3.19,3.28l.11,13.67,11.58-.12,17.54.43ZM364.63,106.55c-3.12.05-5.63,1.6-7.56,5.24l9.4.75c-.25.78-.99,2.21-1.55,3.08l-4.01,6.27-6.33,9.71,12.25-1.36c.45-.05,1.35.04,1.8.04.84,0,2.58-.29,3.09-.53,3.87-.12,11.38-.7,15.86-.55l16.17.53c6.21,1.32,12.94,1.64,19.61,1.65-3.23-3.85-5.63-6.99-8.19-11.3-4.44-7.46-5.72-3.28-9.2-8.65l9.52-.09c7.07-.06-3.91-6.79-15.53-6.84l-9.39-.03-15.98.38c-3.39.08-7.08.87-9.96,1.68ZM302.61,116.22c-2.09-.1-6.73.29-8.39,1.67-.76.63-1.03,3.54-1.12,4.64l-1.41,17.76c-.07.84,1.21,3.39,1.82,3l4.21-2.7,21.89-3.18c1.18-.17,2.08-2.39,2.16-3.64l.76-12.6-4.19-1.46,7.7-7.81c-2.5-.35-5.12-.43-7.72.12l-13.74,2.88c-.36.08-1.81.83-1.96,1.31ZM481.87,140.65l4.19,2.15-.29-6.51-.32-10.73c-.02-.68-.38-1.92-.57-3l-.7-4.04c-.19-1.08-2.37-1.16-4.34-1.64l-17.42-4.23c-2.26-.55-5.26-.32-8.25.28,10.63,13.04,22.83-.18,23.77,27.4l3.94.32ZM354.86,154.56l-3.35,2.83,3.3-1.71c23.69-9.33,38.02-9.75,62.88-2.37,1.51.45,3.07.77,4.88,1.14l2.09,2.31c.28.31,1.58-1.69,1.18-1.8l-2.22-.65c-.58-2.65-7.11-4.72-7.63-7.09-.58-2.64.85-6.7,1.89-9.96-22.53-3.2-35.11-3.19-57.3-.2.56,3.29,1.24,7.16,1.34,9.33l-7.06,8.18Z"/>
        <path class="cls-1" d="M403.9,58.53c-.86.29-1.84,1.19-2.18,2.03l-2,1c-1.09.46-2.31,1.18-3.03,2.14-6.3.92-13.01.56-18.1-3.96-3.07-2.73-4.83-6.86-3.29-10.49,6.63,5.51,14.75,10.43,21.37,3.54l3.98-4.14,1.49-.19c.35-.04.94-1.15.64-1.35l-1.05-.74c.23-.49.99-1.15,1.97-1.91,2.58,8.59-.43,8.9.2,14.08Z"/>
        <path class="cls-1" d="M394.58,9.24c.64.11,10.81,3.69,11.05,1.72l.13-1.12c14.31,5.47,23.4,17.74,24.22,33.83-2.81.49-6.8-.69-8.4-1.93-.25-.19-1-.59-1.32-.77-.17-.1-.27.14-.53.48-4.77-9.68-4.27-15.81-15.99-22.04-12.28-6.52-26.35-4.75-36.78,4.53-4.39,3.91-9.97,11.81-7.29,16.57-.21.78-.81,2.93-.66,3.81l.71,4.24c-.37.25-1.94.95-1.84,1.39,1.32,6.17,6.4,16.8,3.59,14.59l-1.52-1.19-2.56-2c-.6-.47-3.27,1.55-3.01,2.38.63,1.97,2.53,6.05,3.89,8.75.91,1.7-1.16.71-1.93-.26-6.49-8.49-12.41-22.7-7.78-31.6,1.03-.03,2.52-1.14,2.89-2.16,1.9-5.2,3.61-9.28,5.87-13.99l1.67-3.47c3.65-2.46,6.89-4.71,9.83-7.25l7.84-2.44c5.15-1.6,12.67-2.95,17.91-2.07Z"/>
        <path class="cls-1" d="M405.96,111.44c-.27-.41-1.53-1.16-2.11-1.2l-10.17-.88c2.59,1.72,4.91,3.23,4.98,4.98.11,2.68.09,4.33.31,6.08l.98,7.55,3.78,1.77-16.17-.53c-4.48-.15-11.99.43-15.86.55-.83.03-2.56.35-3.09.53-.45,0-1.35-.09-1.8-.04l3.22-10.78c1.54-5.15,4.29-4.32,4.83-7.47,3.44.25,15.63-2.75,15.7-7.5l9.39.03c11.61.04,22.59,6.77,15.53,6.84l-9.52.09Z"/>
        <path class="cls-1" d="M297.72,140.59c-.34-4.65-.19-10.34.34-15.3.46-4.28,6.06-3.96,4.55-9.07.15-.48,1.6-1.23,1.96-1.31l13.74-2.88c2.61-.55,5.22-.47,7.72-.12l-7.7,7.81,4.19,1.46-.76,12.6c-.07,1.24-.98,3.47-2.16,3.64l-21.89,3.18Z"/>
        <path class="cls-1" d="M405.96,111.44c3.48,5.37,4.76,1.19,9.2,8.65,2.56,4.31,4.96,7.44,8.19,11.3-6.68-.01-13.41-.33-19.61-1.65l-3.78-1.77-.98-7.55c-.23-1.75-.21-3.4-.31-6.08-.07-1.74-2.39-3.26-4.98-4.98l10.17.88c.57.05,1.84.79,2.11,1.2Z"/>
        <path class="cls-1" d="M479.84,116.87c-.32.92-1.35,3.39-.89,4.24l2.62,4.81c2.04,3.75.68,10.45.31,14.73l-3.94-.32c-.94-27.58-13.15-14.36-23.77-27.4,2.99-.6,6-.83,8.25-.28l17.42,4.23Z"/>
        <path class="cls-1" d="M374.87,111.98c-.53,3.15-3.29,2.32-4.83,7.47l-3.22,10.78-12.25,1.36,6.33-9.71,4.01-6.27c.56-.88,1.3-2.3,1.55-3.08.09-.27.13-.78.18-1.15l8.23.6Z"/>
        <path class="cls-1" d="M302.61,116.22c1.51,5.11-4.09,4.79-4.55,9.07-.53,4.96-.68,10.65-.34,15.3l-4.21,2.7c-.61.39-1.89-2.15-1.82-3l1.41-17.76c.09-1.1.35-4,1.12-4.64,1.67-1.39,6.3-1.77,8.39-1.67Z"/>
        <path class="cls-1" d="M484.89,122.56l.57,3,.32,10.73.29,6.51-4.19-2.15c.37-4.28,1.73-10.97-.31-14.73l-2.62-4.81c-.46-.84.58-3.32.89-4.24,1.97.48,4.16.56,4.34,1.64l.7,4.04Z"/>
        <path class="cls-1" d="M368.55,11.68l.28,2.07c-2.95,2.54-6.18,4.79-9.83,7.25l-1.67,3.47c-2.26,4.71-3.97,8.8-5.87,13.99-.37,1.02-1.87,2.13-2.89,2.16-1.24-5.78,4.92-15.52,8.99-20.12,3.47-3.93,7.01-6.51,11-8.81Z"/>
        <path class="cls-1" d="M421.49,48.55c-.12,8.63-4.4,17.53-12.77,21.99,6.1-6.35,9.62-13.36,10.37-21.77l2.41-.22Z"/>
        <path class="cls-1" d="M364.63,106.55c-.17,1.72.68,3.52,2.02,4.83-.05.37-.09.89-.18,1.15l-9.4-.75c1.93-3.64,4.44-5.19,7.56-5.24Z"/>
        <path class="cls-1" d="M405.76,9.84l-.13,1.12c-.24,1.97-10.41-1.61-11.05-1.72l.22-2.7c4.18.59,7.15,1.85,10.96,3.3Z"/>
        <path class="cls-1" d="M421.58,41.73l-.09,6.82-2.41.22.65-7.32c.25-.33.36-.57.53-.48.33.18,1.07.57,1.32.77Z"/>
        <path class="cls-1" d="M359.72,48.56l-.71-4.24c-.15-.88.44-3.03.66-3.81,1.69,3.01,1.72,6.94.05,8.05Z"/>
        <path class="cls-1" d="M422.56,154.45l1.05-.15,2.22.65c.4.12-.9,2.12-1.18,1.8l-2.09-2.31Z"/>
        <path class="cls-1" d="M371.72,129.75c-.51.24-2.25.53-3.09.53.53-.18,2.26-.5,3.09-.53Z"/>
        <path class="cls-1" d="M485.45,125.56l-.57-3c.19,1.08.55,2.32.57,3Z"/>
        <polygon class="cls-1" points="354.81 155.68 351.51 157.39 354.86 154.56 354.81 155.68"/>
        <path class="cls-1" d="M400.65,48.64l1.08-2.28,1.05.74c.29.2-.29,1.31-.64,1.35l-1.49.19Z"/>
      </g>
    </g>
  </g>
</svg>